solid unnamed
facet normal 0 -1 -0
    outer loop
        vertex 1 0.00000000000000012246469 12.001
        vertex 3.1999998 0.00000000000000039188697 12.001
        vertex 3.1999998 -0 14.251
    endloop
endfacet
facet normal 0 -1 0
    outer loop
        vertex 1 -0 15
        vertex 3.1999998 -0 14.251
        vertex 17 -0 15
    endloop
endfacet
facet normal 0 -1 0
    outer loop
        vertex 17 -0 15
        vertex 3.1999998 -0 14.251
        vertex 14.8 -0 14.251
    endloop
endfacet
facet normal 0 -1 0
    outer loop
        vertex 17 -0 12.001
        vertex 14.8 -0 14.251
        vertex 14.8 -0 12.001
    endloop
endfacet
facet normal -0 -1 -0
    outer loop
        vertex 1 0.00000000000000012246469 12.001
        vertex 3.1999998 -0 14.251
        vertex 1 -0 15
    endloop
endfacet
facet normal 0 -1 -0
    outer loop
        vertex 17 -0 15
        vertex 14.8 -0 14.251
        vertex 17 -0 12.001
    endloop
endfacet
facet normal 1 0 -0
    outer loop
        vertex 18 23.800001 10
        vertex 18 23.800001 12.001
        vertex 18 6.2000003 10
    endloop
endfacet
facet normal 1 0 -0
    outer loop
        vertex 18 6.2000003 12.001
        vertex 18 23.800001 12.001
        vertex 18 1 15
    endloop
endfacet
facet normal 1 0 0
    outer loop
        vertex 18 1 12.001
        vertex 18 6.2000003 12.001
        vertex 18 1 15
    endloop
endfacet
facet normal 1 0 0
    outer loop
        vertex 18 29 15
        vertex 18 23.800001 12.001
        vertex 18 29 12.001
    endloop
endfacet
facet normal 1 0 0
    outer loop
        vertex 18 23.800001 12.001
        vertex 18 6.2000003 12.001
        vertex 18 6.2000003 10
    endloop
endfacet
facet normal 1 0 0
    outer loop
        vertex 18 29 15
        vertex 18 1 15
        vertex 18 23.800001 12.001
    endloop
endfacet
facet normal 0 1 -0
    outer loop
        vertex 3.1999998 30 12.001
        vertex 1 30 12.001
        vertex 3.1999998 30 12.401
    endloop
endfacet
facet normal 0 1 -0
    outer loop
        vertex 3.1999998 30 12.401
        vertex 1 30 15
        vertex 14.8 30 12.401
    endloop
endfacet
facet normal 0 1 0
    outer loop
        vertex 3.1999998 30 12.401
        vertex 1 30 12.001
        vertex 1 30 15
    endloop
endfacet
facet normal 0 0.99999994 -0
    outer loop
        vertex 14.8 30 12.401
        vertex 1 30 15
        vertex 17 30 15
    endloop
endfacet
facet normal 0 1 0
    outer loop
        vertex 14.8 30 12.001
        vertex 14.8 30 12.401
        vertex 17 30 12.001
    endloop
endfacet
facet normal 0 1 0
    outer loop
        vertex 17 30 15
        vertex 17 30 12.001
        vertex 14.8 30 12.401
    endloop
endfacet
facet normal -1 0 0
    outer loop
        vertex -0.0000000000000004440892 6.2000003 10
        vertex -0.0000000000000004440892 6.2000003 12.001
        vertex 0.0000000000000013322676 23.800001 10
    endloop
endfacet
facet normal -1 0 0
    outer loop
        vertex 0.0000000000000013322676 23.800001 12.001
        vertex -0.0000000000000004440892 6.2000003 12.001
        vertex 0.00000000000000343429 29 15
    endloop
endfacet
facet normal -1 -0 0
    outer loop
        vertex 0.00000000000000021488188 29 12.001
        vertex 0.0000000000000013322676 23.800001 12.001
        vertex 0.00000000000000343429 29 15
    endloop
endfacet
facet normal -1 -0 0
    outer loop
        vertex 0.0000000000000001184238 1 15
        vertex -0.0000000000000004440892 6.2000003 12.001
        vertex -0.000000000000000071627296 1 12.001
    endloop
endfacet
facet normal -1 0 0
    outer loop
        vertex -0.0000000000000004440892 6.2000003 12.001
        vertex 0.0000000000000013322676 23.800001 12.001
        vertex 0.0000000000000013322676 23.800001 10
    endloop
endfacet
facet normal -1 0 0
    outer loop
        vertex 0.0000000000000001184238 1 15
        vertex 0.00000000000000343429 29 15
        vertex -0.0000000000000004440892 6.2000003 12.001
    endloop
endfacet
facet normal 0 0 1
    outer loop
        vertex 1 30 15
        vertex 0.00000000000000343429 29 15
        vertex 18 29 15
    endloop
endfacet
facet normal 0 0 1
    outer loop
        vertex 18 29 15
        vertex 0.00000000000000343429 29 15
        vertex 0.0000000000000001184238 1 15
    endloop
endfacet
facet normal 0 0 1
    outer loop
        vertex 18 29 15
        vertex 0.0000000000000001184238 1 15
        vertex 18 1 15
    endloop
endfacet
facet normal 0 -0 1
    outer loop
        vertex 17 -0 15
        vertex 18 1 15
        vertex 0.0000000000000001184238 1 15
    endloop
endfacet
facet normal 0 0 1
    outer loop
        vertex 0.0000000000000001184238 1 15
        vertex 1 -0 15
        vertex 17 -0 15
    endloop
endfacet
facet normal 0 0 1
    outer loop
        vertex 18 29 15
        vertex 17 30 15
        vertex 1 30 15
    endloop
endfacet
facet normal 0.70710683 0.70710683 0
    outer loop
        vertex 17 30 15
        vertex 18 29 15
        vertex 17 30 12.001
    endloop
endfacet
facet normal 0.70710683 0.70710683 0
    outer loop
        vertex 18 29 15
        vertex 18 29 12.001
        vertex 17 30 12.001
    endloop
endfacet
facet normal 0.70710683 -0.70710683 0
    outer loop
        vertex 18 1 15
        vertex 17 -0 15
        vertex 18 1 12.001
    endloop
endfacet
facet normal 0.70710683 -0.70710683 0
    outer loop
        vertex 17 -0 15
        vertex 17 -0 12.001
        vertex 18 1 12.001
    endloop
endfacet
facet normal -0.70710683 -0.70710683 0
    outer loop
        vertex 0.0000000000000001184238 1 15
        vertex -0.000000000000000071627296 1 12.001
        vertex 1 -0 15
    endloop
endfacet
facet normal -0.70710683 -0.70710683 -0
    outer loop
        vertex 1 -0 15
        vertex -0.000000000000000071627296 1 12.001
        vertex 1 0.00000000000000012246469 12.001
    endloop
endfacet
facet normal -0.70710683 0.70710683 0
    outer loop
        vertex 0.00000000000000343429 29 15
        vertex 1 30 15
        vertex 0.00000000000000021488188 29 12.001
    endloop
endfacet
facet normal -0.70710683 0.70710683 0
    outer loop
        vertex 1 30 15
        vertex 1 30 12.001
        vertex 0.00000000000000021488188 29 12.001
    endloop
endfacet
facet normal -1 0 0
    outer loop
        vertex 14.8 6.2000003 12.001
        vertex 14.8 -0 12.001
        vertex 14.8 -0 14.251
    endloop
endfacet
facet normal -1 0 0
    outer loop
        vertex 14.8 6.2000003 12.001
        vertex 14.8 -0 14.251
        vertex 14.8 8.6 14.251
    endloop
endfacet
facet normal -1 0 0
    outer loop
        vertex 14.8 6.2000003 12.001
        vertex 14.8 8.6 11.701
        vertex 14.8 6.2000003 11.701
    endloop
endfacet
facet normal -1 0 -0
    outer loop
        vertex 14.8 8.6 14.251
        vertex 14.8 8.6 11.701
        vertex 14.8 6.2000003 12.001
    endloop
endfacet
facet normal 1 0 -0
    outer loop
        vertex 3.1999998 8.6 11.701
        vertex 3.1999998 8.6 14.251
        vertex 3.1999998 6.2000003 12.001
    endloop
endfacet
facet normal 1 0 0
    outer loop
        vertex 3.1999998 8.6 14.251
        vertex 3.1999998 -0 14.251
        vertex 3.1999998 6.2000003 12.001
    endloop
endfacet
facet normal 1 0 0
    outer loop
        vertex 3.1999998 6.2000003 12.001
        vertex 3.1999998 -0 14.251
        vertex 3.1999998 0.00000000000000039188697 12.001
    endloop
endfacet
facet normal 1 0 0
    outer loop
        vertex 3.1999998 6.2000003 12.001
        vertex 3.1999998 6.2000003 11.701
        vertex 3.1999998 8.6 11.701
    endloop
endfacet
facet normal 0 0 -0.99999994
    outer loop
        vertex 3.1999998 25 11.701
        vertex 14.8 25 11.701
        vertex 3.1999998 23.800001 11.701
    endloop
endfacet
facet normal 0 0 -1
    outer loop
        vertex 3.1999998 10.5 11.701
        vertex 14.8 23.800001 11.701
        vertex 3.1999998 8.6 11.701
    endloop
endfacet
facet normal 0 -0 -0.99999994
    outer loop
        vertex 14.8 23.800001 11.701
        vertex 14.8 20 11.701
        vertex 3.1999998 8.6 11.701
    endloop
endfacet
facet normal 0 0 -0.99999994
    outer loop
        vertex 3.1999998 23.800001 11.701
        vertex 14.8 25 11.701
        vertex 14.8 23.800001 11.701
    endloop
endfacet
facet normal 0 -0 -1
    outer loop
        vertex 14.8 16.2 11.701
        vertex 14.8 12.400001 11.701
        vertex 3.1999998 8.6 11.701
    endloop
endfacet
facet normal 0 -0 -0.99999994
    outer loop
        vertex 14.8 12.400001 11.701
        vertex 14.8 10.5 11.701
        vertex 3.1999998 8.6 11.701
    endloop
endfacet
facet normal 0 -0 -1
    outer loop
        vertex 14.8 10.5 11.701
        vertex 14.8 8.6 11.701
        vertex 3.1999998 8.6 11.701
    endloop
endfacet
facet normal 0 -0 -1
    outer loop
        vertex 14.8 20 11.701
        vertex 14.8 16.2 11.701
        vertex 3.1999998 8.6 11.701
    endloop
endfacet
facet normal 0 0 -1
    outer loop
        vertex 3.1999998 20 11.701
        vertex 14.8 23.800001 11.701
        vertex 3.1999998 16.2 11.701
    endloop
endfacet
facet normal 0 0 -1
    outer loop
        vertex 3.1999998 16.2 11.701
        vertex 14.8 23.800001 11.701
        vertex 3.1999998 12.400001 11.701
    endloop
endfacet
facet normal 0 0 -0.99999994
    outer loop
        vertex 3.1999998 12.400001 11.701
        vertex 14.8 23.800001 11.701
        vertex 3.1999998 10.5 11.701
    endloop
endfacet
facet normal 0 0 -0.99999994
    outer loop
        vertex 3.1999998 23.800001 11.701
        vertex 14.8 23.800001 11.701
        vertex 3.1999998 20 11.701
    endloop
endfacet
facet normal 0 1 0
    outer loop
        vertex 3.1999998 25 12.001
        vertex 3.1999998 25 12.401
        vertex 14.8 25 12.001
    endloop
endfacet
facet normal -0 1 0
    outer loop
        vertex 3.1999998 25 12.001
        vertex 14.8 25 12.001
        vertex 3.1999998 25 11.701
    endloop
endfacet
facet normal 0 1 0
    outer loop
        vertex 14.8 25 12.001
        vertex 14.8 25 11.701
        vertex 3.1999998 25 11.701
    endloop
endfacet
facet normal 0 1 -0
    outer loop
        vertex 14.8 25 12.001
        vertex 3.1999998 25 12.401
        vertex 14.8 25 12.401
    endloop
endfacet
facet normal 0 0 -1
    outer loop
        vertex 3.1999998 30 12.401
        vertex 14.8 30 12.401
        vertex 3.1999998 25 12.401
    endloop
endfacet
facet normal 0 0 -1
    outer loop
        vertex 3.1999998 25 12.401
        vertex 14.8 30 12.401
        vertex 14.8 25 12.401
    endloop
endfacet
facet normal -0 -1 -0
    outer loop
        vertex 14.8 8.6 14.251
        vertex 3.1999998 8.6 14.251
        vertex 14.8 8.6 11.701
    endloop
endfacet
facet normal 0 -1 0
    outer loop
        vertex 3.1999998 8.6 14.251
        vertex 3.1999998 8.6 11.701
        vertex 14.8 8.6 11.701
    endloop
endfacet
facet normal -0 -0 -1
    outer loop
        vertex 14.8 8.6 14.251
        vertex 14.8 -0 14.251
        vertex 3.1999998 8.6 14.251
    endloop
endfacet
facet normal 0 0 -1
    outer loop
        vertex 3.1999998 8.6 14.251
        vertex 14.8 -0 14.251
        vertex 3.1999998 -0 14.251
    endloop
endfacet
facet normal 0 -1 0
    outer loop
        vertex 15 6.2000003 10
        vertex 18 6.2000003 10
        vertex 15 6.2000003 11.701
    endloop
endfacet
facet normal 0 -1 0
    outer loop
        vertex 18 6.2000003 10
        vertex 18 6.2000003 12.001
        vertex 15 6.2000003 11.701
    endloop
endfacet
facet normal 0 -1 0
    outer loop
        vertex 15 6.2000003 11.701
        vertex 18 6.2000003 12.001
        vertex 14.8 6.2000003 12.001
    endloop
endfacet
facet normal 0 -1 0
    outer loop
        vertex 14.8 6.2000003 11.701
        vertex 15 6.2000003 11.701
        vertex 14.8 6.2000003 12.001
    endloop
endfacet
facet normal -0 -0 -1
    outer loop
        vertex 18 6.2000003 12.001
        vertex 18 1 12.001
        vertex 14.8 6.2000003 12.001
    endloop
endfacet
facet normal 0 0 -1
    outer loop
        vertex 14.8 6.2000003 12.001
        vertex 18 1 12.001
        vertex 14.8 -0 12.001
    endloop
endfacet
facet normal 0 0 -1
    outer loop
        vertex 14.8 -0 12.001
        vertex 18 1 12.001
        vertex 17 -0 12.001
    endloop
endfacet
facet normal -0 1 0
    outer loop
        vertex 14.8 23.800001 12.001
        vertex 18 23.800001 12.001
        vertex 15 23.800001 11.701
    endloop
endfacet
facet normal 0 1 0
    outer loop
        vertex 18 23.800001 12.001
        vertex 18 23.800001 10
        vertex 15 23.800001 11.701
    endloop
endfacet
facet normal 0 1 0
    outer loop
        vertex 15 23.800001 11.701
        vertex 14.8 23.800001 11.701
        vertex 14.8 23.800001 12.001
    endloop
endfacet
facet normal 0 1 0
    outer loop
        vertex 15 23.800001 11.701
        vertex 18 23.800001 10
        vertex 15 23.800001 10
    endloop
endfacet
facet normal 0 0 -1
    outer loop
        vertex 14.8 30 12.001
        vertex 17 30 12.001
        vertex 18 29 12.001
    endloop
endfacet
facet normal 0 0 -1
    outer loop
        vertex 14.8 25 12.001
        vertex 14.8 30 12.001
        vertex 18 29 12.001
    endloop
endfacet
facet normal 0 0 -1
    outer loop
        vertex 14.8 25 12.001
        vertex 18 29 12.001
        vertex 18 23.800001 12.001
    endloop
endfacet
facet normal 0 0 -1
    outer loop
        vertex 14.8 25 12.001
        vertex 18 23.800001 12.001
        vertex 14.8 23.800001 12.001
    endloop
endfacet
facet normal -0 -0 -1
    outer loop
        vertex 18 23.800001 10
        vertex 18 6.2000003 10
        vertex 15 23.800001 10
    endloop
endfacet
facet normal 0 0 -1
    outer loop
        vertex 18 6.2000003 10
        vertex 15 6.2000003 10
        vertex 15 23.800001 10
    endloop
endfacet
facet normal -1 0 0
    outer loop
        vertex 14.8 25 12.401
        vertex 14.8 30 12.001
        vertex 14.8 25 12.001
    endloop
endfacet
facet normal -1 -0 -0
    outer loop
        vertex 14.8 30 12.401
        vertex 14.8 30 12.001
        vertex 14.8 25 12.401
    endloop
endfacet
facet normal 1 -0 0
    outer loop
        vertex 14.8 23.800001 12.001
        vertex 14.8 23.800001 11.701
        vertex 14.8 25 12.001
    endloop
endfacet
facet normal 1 0 0
    outer loop
        vertex 14.8 23.800001 11.701
        vertex 14.8 25 11.701
        vertex 14.8 25 12.001
    endloop
endfacet
facet normal 0 1 -0
    outer loop
        vertex 3 23.800001 10
        vertex 0.0000000000000013322676 23.800001 10
        vertex 3 23.800001 11.701
    endloop
endfacet
facet normal 0 1 0
    outer loop
        vertex 0.0000000000000013322676 23.800001 10
        vertex 0.0000000000000013322676 23.800001 12.001
        vertex 3 23.800001 11.701
    endloop
endfacet
facet normal 0 1 -0
    outer loop
        vertex 3 23.800001 11.701
        vertex 0.0000000000000013322676 23.800001 12.001
        vertex 3.1999998 23.800001 12.001
    endloop
endfacet
facet normal 0 1 -0
    outer loop
        vertex 3.1999998 23.800001 11.701
        vertex 3 23.800001 11.701
        vertex 3.1999998 23.800001 12.001
    endloop
endfacet
facet normal 0 0 -1
    outer loop
        vertex 0.0000000000000013322676 23.800001 12.001
        vertex 3.1999998 25 12.001
        vertex 3.1999998 23.800001 12.001
    endloop
endfacet
facet normal 0 0 -1
    outer loop
        vertex 0.0000000000000013322676 23.800001 12.001
        vertex 0.00000000000000021488188 29 12.001
        vertex 3.1999998 25 12.001
    endloop
endfacet
facet normal 0 0 -1
    outer loop
        vertex 3.1999998 25 12.001
        vertex 0.00000000000000021488188 29 12.001
        vertex 3.1999998 30 12.001
    endloop
endfacet
facet normal -0 0 -1
    outer loop
        vertex 3.1999998 30 12.001
        vertex 0.00000000000000021488188 29 12.001
        vertex 1 30 12.001
    endloop
endfacet
facet normal 1 0 0
    outer loop
        vertex 3.1999998 30 12.401
        vertex 3.1999998 25 12.401
        vertex 3.1999998 30 12.001
    endloop
endfacet
facet normal 1 0 0
    outer loop
        vertex 3.1999998 25 12.401
        vertex 3.1999998 25 12.001
        vertex 3.1999998 30 12.001
    endloop
endfacet
facet normal -1 0 0
    outer loop
        vertex 3.1999998 25 11.701
        vertex 3.1999998 23.800001 11.701
        vertex 3.1999998 25 12.001
    endloop
endfacet
facet normal -1 0 0
    outer loop
        vertex 3.1999998 23.800001 11.701
        vertex 3.1999998 23.800001 12.001
        vertex 3.1999998 25 12.001
    endloop
endfacet
facet normal -0 -1 0
    outer loop
        vertex 3.1999998 6.2000003 12.001
        vertex -0.0000000000000004440892 6.2000003 12.001
        vertex 3 6.2000003 11.701
    endloop
endfacet
facet normal 0 -1 0
    outer loop
        vertex -0.0000000000000004440892 6.2000003 12.001
        vertex -0.0000000000000004440892 6.2000003 10
        vertex 3 6.2000003 11.701
    endloop
endfacet
facet normal 0 -1 0
    outer loop
        vertex 3 6.2000003 11.701
        vertex 3.1999998 6.2000003 11.701
        vertex 3.1999998 6.2000003 12.001
    endloop
endfacet
facet normal 0 -1 -0
    outer loop
        vertex 3 6.2000003 11.701
        vertex -0.0000000000000004440892 6.2000003 10
        vertex 3 6.2000003 10
    endloop
endfacet
facet normal 0 0 -1
    outer loop
        vertex 1 0.00000000000000012246469 12.001
        vertex -0.000000000000000071627296 1 12.001
        vertex 3.1999998 0.00000000000000039188697 12.001
    endloop
endfacet
facet normal 0 0 -1
    outer loop
        vertex 3.1999998 0.00000000000000039188697 12.001
        vertex -0.000000000000000071627296 1 12.001
        vertex 3.1999998 6.2000003 12.001
    endloop
endfacet
facet normal 0 0 -1
    outer loop
        vertex -0.000000000000000071627296 1 12.001
        vertex -0.0000000000000004440892 6.2000003 12.001
        vertex 3.1999998 6.2000003 12.001
    endloop
endfacet
facet normal 0 0 -1
    outer loop
        vertex -0.0000000000000004440892 6.2000003 10
        vertex 0.0000000000000013322676 23.800001 10
        vertex 3 6.2000003 10
    endloop
endfacet
facet normal 0 0 -1
    outer loop
        vertex 0.0000000000000013322676 23.800001 10
        vertex 3 23.800001 10
        vertex 3 6.2000003 10
    endloop
endfacet
facet normal -0.99999994 0 0
    outer loop
        vertex 15 23.800001 10
        vertex 15 6.2000003 10
        vertex 15 23.800001 11.701
    endloop
endfacet
facet normal -1 0 0
    outer loop
        vertex 15 6.2000003 10
        vertex 15 19.400002 11.701
        vertex 15 23.800001 11.701
    endloop
endfacet
facet normal -1 0 0
    outer loop
        vertex 15 6.2000003 10
        vertex 15 12.799999 11.701
        vertex 15 15 11.701
    endloop
endfacet
facet normal -1 0 0
    outer loop
        vertex 15 6.2000003 10
        vertex 15 8.4 11.701
        vertex 15 10.599999 11.701
    endloop
endfacet
facet normal -1 0 0
    outer loop
        vertex 15 6.2000003 10
        vertex 15 6.2000003 11.701
        vertex 15 8.4 11.701
    endloop
endfacet
facet normal -1 0 0
    outer loop
        vertex 15 6.2000003 10
        vertex 15 10.599999 11.701
        vertex 15 12.799999 11.701
    endloop
endfacet
facet normal -1 0 0
    outer loop
        vertex 15 6.2000003 10
        vertex 15 17.2 11.701
        vertex 15 19.400002 11.701
    endloop
endfacet
facet normal -1 0 0
    outer loop
        vertex 15 6.2000003 10
        vertex 15 15 11.701
        vertex 15 17.2 11.701
    endloop
endfacet
facet normal 0 0 -1
    outer loop
        vertex 14.8 20 11.701
        vertex 15 19.400002 11.701
        vertex 15 17.2 11.701
    endloop
endfacet
facet normal 0 0 -1
    outer loop
        vertex 14.8 10.5 11.701
        vertex 14.8 12.400001 11.701
        vertex 15 10.599999 11.701
    endloop
endfacet
facet normal 0 0 -1
    outer loop
        vertex 14.8 10.5 11.701
        vertex 15 10.599999 11.701
        vertex 14.8 8.6 11.701
    endloop
endfacet
facet normal -0 0 -1
    outer loop
        vertex 15 23.800001 11.701
        vertex 14.8 20 11.701
        vertex 14.8 23.800001 11.701
    endloop
endfacet
facet normal 0 0 -1
    outer loop
        vertex 14.8 16.2 11.701
        vertex 15 15 11.701
        vertex 14.8 12.400001 11.701
    endloop
endfacet
facet normal 0 -0 -1
    outer loop
        vertex 15 8.4 11.701
        vertex 15 6.2000003 11.701
        vertex 14.8 6.2000003 11.701
    endloop
endfacet
facet normal 0 0 -1
    outer loop
        vertex 15 10.599999 11.701
        vertex 14.8 12.400001 11.701
        vertex 15 12.799999 11.701
    endloop
endfacet
facet normal 0 0 -1
    outer loop
        vertex 15 15 11.701
        vertex 14.8 16.2 11.701
        vertex 15 17.2 11.701
    endloop
endfacet
facet normal 0 0 -1
    outer loop
        vertex 14.8 20 11.701
        vertex 15 17.2 11.701
        vertex 14.8 16.2 11.701
    endloop
endfacet
facet normal 0 0 -1
    outer loop
        vertex 14.8 6.2000003 11.701
        vertex 14.8 8.6 11.701
        vertex 15 8.4 11.701
    endloop
endfacet
facet normal 0 -0 -1
    outer loop
        vertex 15 15 11.701
        vertex 15 12.799999 11.701
        vertex 14.8 12.400001 11.701
    endloop
endfacet
facet normal 0 0 -1
    outer loop
        vertex 14.8 8.6 11.701
        vertex 15 10.599999 11.701
        vertex 15 8.4 11.701
    endloop
endfacet
facet normal 0 0 -1
    outer loop
        vertex 14.8 20 11.701
        vertex 15 23.800001 11.701
        vertex 15 19.400002 11.701
    endloop
endfacet
facet normal 0.99999994 0 0
    outer loop
        vertex 3 6.2000003 10
        vertex 3 23.800001 10
        vertex 3 6.2000003 11.701
    endloop
endfacet
facet normal 0.99999994 0 0
    outer loop
        vertex 3 23.800001 10
        vertex 3 8.4 11.701
        vertex 3 6.2000003 11.701
    endloop
endfacet
facet normal 1 0 0
    outer loop
        vertex 3 23.800001 10
        vertex 3 17.2 11.701
        vertex 3 15 11.701
    endloop
endfacet
facet normal 0.99999994 0 0
    outer loop
        vertex 3 23.800001 10
        vertex 3 12.799999 11.701
        vertex 3 10.599999 11.701
    endloop
endfacet
facet normal 1 0 0
    outer loop
        vertex 3 23.800001 10
        vertex 3 10.599999 11.701
        vertex 3 8.4 11.701
    endloop
endfacet
facet normal 1 0 0
    outer loop
        vertex 3 23.800001 10
        vertex 3 15 11.701
        vertex 3 12.799999 11.701
    endloop
endfacet
facet normal 1 0 -0
    outer loop
        vertex 3 23.800001 10
        vertex 3 23.800001 11.701
        vertex 3 19.400002 11.701
    endloop
endfacet
facet normal 1 0 0
    outer loop
        vertex 3 23.800001 10
        vertex 3 19.400002 11.701
        vertex 3 17.2 11.701
    endloop
endfacet
facet normal 0 0 -1
    outer loop
        vertex 3 17.2 11.701
        vertex 3.1999998 16.2 11.701
        vertex 3 15 11.701
    endloop
endfacet
facet normal 0 0 -1
    outer loop
        vertex 3 19.400002 11.701
        vertex 3.1999998 20 11.701
        vertex 3 17.2 11.701
    endloop
endfacet
facet normal 0 0 -1
    outer loop
        vertex 3 12.799999 11.701
        vertex 3.1999998 12.400001 11.701
        vertex 3 10.599999 11.701
    endloop
endfacet
facet normal 0 0 -1
    outer loop
        vertex 3.1999998 10.5 11.701
        vertex 3 10.599999 11.701
        vertex 3.1999998 12.400001 11.701
    endloop
endfacet
facet normal 0 0 -1
    outer loop
        vertex 3.1999998 12.400001 11.701
        vertex 3 15 11.701
        vertex 3.1999998 16.2 11.701
    endloop
endfacet
facet normal 0 0 -1
    outer loop
        vertex 3.1999998 16.2 11.701
        vertex 3 17.2 11.701
        vertex 3.1999998 20 11.701
    endloop
endfacet
facet normal 0 0 -1
    outer loop
        vertex 3 8.4 11.701
        vertex 3.1999998 8.6 11.701
        vertex 3.1999998 6.2000003 11.701
    endloop
endfacet
facet normal 0 0 -1
    outer loop
        vertex 3.1999998 12.400001 11.701
        vertex 3 12.799999 11.701
        vertex 3 15 11.701
    endloop
endfacet
facet normal 0 0 -1
    outer loop
        vertex 3 10.599999 11.701
        vertex 3.1999998 8.6 11.701
        vertex 3 8.4 11.701
    endloop
endfacet
facet normal -0 -0 -1
    outer loop
        vertex 3.1999998 23.800001 11.701
        vertex 3.1999998 20 11.701
        vertex 3 23.800001 11.701
    endloop
endfacet
facet normal 0 0 -1
    outer loop
        vertex 3 19.400002 11.701
        vertex 3 23.800001 11.701
        vertex 3.1999998 20 11.701
    endloop
endfacet
facet normal 0 0 -1
    outer loop
        vertex 3 6.2000003 11.701
        vertex 3 8.4 11.701
        vertex 3.1999998 6.2000003 11.701
    endloop
endfacet
facet normal 0 0 -1
    outer loop
        vertex 3.1999998 8.6 11.701
        vertex 3 10.599999 11.701
        vertex 3.1999998 10.5 11.701
    endloop
endfacet
endsolid unnamed
